<?xml version="1.0" standalone="no"?>
<!DOCTYPE svg PUBLIC "-//W3C//DTD SVG 20010904//EN"
 "http://www.w3.org/TR/2001/REC-SVG-20010904/DTD/svg10.dtd">
<svg version="1.0" xmlns="http://www.w3.org/2000/svg"
 width="80.000000pt" height="80.000000pt" viewBox="0 0 80.000000 80.000000"
 preserveAspectRatio="xMidYMid meet">
<metadata>
Created by potrace 1.11, written by Peter Selinger 2001-2013
</metadata>
<g transform="translate(0.000000,80.000000) scale(0.100000,-0.100000)"
fill="#000000" stroke="none">
<path d="M378 795 c-2 -2 -19 -5 -38 -8 -19 -2 -52 -11 -72 -20 -20 -8 -39
-13 -42 -9 -3 3 -6 0 -6 -6 0 -6 -8 -13 -17 -16 -10 -3 -30 -17 -46 -31 -15
-14 -27 -22 -27 -18 0 4 -8 -4 -18 -18 -9 -15 -30 -46 -46 -70 -34 -51 -63
-156 -60 -214 3 -45 23 -125 35 -141 5 -6 6 -14 2 -17 -3 -4 -1 -7 5 -7 6 0
14 -10 17 -21 4 -12 22 -37 40 -55 18 -18 30 -36 27 -40 -4 -4 -2 -4 4 -1 6 3
22 -5 37 -19 14 -13 31 -24 37 -24 5 0 10 -5 10 -11 0 -5 5 -7 10 -4 6 3 10 1
10 -6 0 -7 3 -10 6 -6 4 3 21 0 40 -8 67 -28 195 -20 266 16 21 11 38 17 38
13 0 -3 6 1 14 8 7 7 36 33 65 57 28 25 51 51 51 58 0 7 4 13 10 13 5 0 12 11
16 25 3 14 11 25 17 25 6 0 8 3 4 6 -3 3 1 25 9 47 14 39 20 142 11 177 -3 8
-8 30 -12 48 -4 18 -12 35 -16 38 -5 3 -7 10 -4 15 4 5 2 9 -4 9 -5 0 -13 10
-17 22 -4 12 -17 31 -30 41 -14 10 -22 23 -19 28 4 5 2 9 -3 9 -5 0 -22 11
-37 24 -42 36 -125 75 -175 82 -60 8 -90 11 -92 9z"/>
</g>
</svg>
